<svg width="746" height="109" viewBox="0 0 746 109" fill="none" xmlns="http://www.w3.org/2000/svg">
<path d="M105.9 37.7C106.6 35.9 107.6 34.55 108.9 33.65C110.3 32.75 111.8 32.3 113.4 32.3C115.7 32.3 117.75 33.1 119.55 34.7C121.45 36.2 122.4 38.1 122.4 40.4C122.4 41.7 122.15 42.85 121.65 43.85L96.9 101.9C96.1 103.8 94.85 105.25 93.15 106.25C91.55 107.25 89.75 107.75 87.75 107.75C85.85 107.75 84.05 107.25 82.35 106.25C80.75 105.25 79.55 103.8 78.75 101.9L60.9 59L43.65 101.9C42.85 103.8 41.6 105.25 39.9 106.25C38.3 107.25 36.5 107.75 34.5 107.75C32.6 107.75 30.8 107.25 29.1 106.25C27.4 105.25 26.15 103.8 25.35 101.9L0.75 43.85C0.25 42.55 2.12342e-07 41.45 2.12342e-07 40.55C2.12342e-07 38.25 1 36.3 3 34.7C5 33 7.2 32.15 9.6 32.15C11.3 32.15 12.85 32.6 14.25 33.5C15.65 34.4 16.7 35.75 17.4 37.55L35.1 83.3L53.25 38C54.05 36.1 55.2 34.7 56.7 33.8C58.2 32.8 59.85 32.3 61.65 32.3C63.45 32.3 65.1 32.8 66.6 33.8C68.1 34.7 69.25 36.1 70.05 38L88.35 83.45L105.9 37.7ZM192.095 86.9C193.795 86.9 195.145 87.55 196.145 88.85C197.245 90.15 197.795 91.9 197.795 94.1C197.795 97.2 195.945 99.8 192.245 101.9C188.845 103.8 184.995 105.35 180.695 106.55C176.395 107.65 172.295 108.2 168.395 108.2C156.595 108.2 147.245 104.8 140.345 98C133.445 91.2 129.995 81.9 129.995 70.1C129.995 62.6 131.495 55.95 134.495 50.15C137.495 44.35 141.695 39.85 147.095 36.65C152.595 33.45 158.795 31.85 165.695 31.85C172.295 31.85 178.045 33.3 182.945 36.2C187.845 39.1 191.645 43.2 194.345 48.5C197.045 53.8 198.395 60.05 198.395 67.25C198.395 71.55 196.495 73.7 192.695 73.7H148.445C149.045 80.6 150.995 85.7 154.295 89C157.595 92.2 162.395 93.8 168.695 93.8C171.895 93.8 174.695 93.4 177.095 92.6C179.595 91.8 182.395 90.7 185.495 89.3C188.495 87.7 190.695 86.9 192.095 86.9ZM166.145 45.05C161.045 45.05 156.945 46.65 153.845 49.85C150.845 53.05 149.045 57.65 148.445 63.65H182.345C182.145 57.55 180.645 52.95 177.845 49.85C175.045 46.65 171.145 45.05 166.145 45.05ZM255.882 31.85C262.282 31.85 267.932 33.4 272.832 36.5C277.732 39.6 281.532 44 284.232 49.7C287.032 55.4 288.432 62.05 288.432 69.65C288.432 77.25 287.032 84 284.232 89.9C281.532 95.7 277.682 100.2 272.682 103.4C267.782 106.6 262.182 108.2 255.882 108.2C250.582 108.2 245.832 107.05 241.632 104.75C237.532 102.45 234.382 99.25 232.182 95.15V98.9C232.182 101.6 231.332 103.75 229.632 105.35C227.932 106.95 225.682 107.75 222.882 107.75C220.082 107.75 217.832 106.95 216.132 105.35C214.532 103.75 213.732 101.6 213.732 98.9V9.2C213.732 6.6 214.582 4.5 216.282 2.9C218.082 1.3 220.382 0.499994 223.182 0.499994C225.982 0.499994 228.232 1.24999 229.932 2.74999C231.632 4.25 232.482 6.3 232.482 8.89999V44.3C234.682 40.3 237.832 37.25 241.932 35.15C246.032 32.95 250.682 31.85 255.882 31.85ZM250.932 93.65C256.832 93.65 261.432 91.55 264.732 87.35C268.032 83.15 269.682 77.25 269.682 69.65C269.682 62.15 268.032 56.4 264.732 52.4C261.532 48.4 256.932 46.4 250.932 46.4C244.932 46.4 240.282 48.45 236.982 52.55C233.782 56.55 232.182 62.35 232.182 69.95C232.182 77.55 233.782 83.4 236.982 87.5C240.282 91.6 244.932 93.65 250.932 93.65ZM623.757 107.75C621.757 107.75 620.057 107.1 618.657 105.8C617.357 104.4 616.707 102.65 616.707 100.55C616.707 98.45 617.357 96.75 618.657 95.45C620.057 94.05 621.757 93.35 623.757 93.35C625.657 93.35 627.257 94.05 628.557 95.45C629.957 96.75 630.657 98.45 630.657 100.55C630.657 102.65 629.957 104.4 628.557 105.8C627.257 107.1 625.657 107.75 623.757 107.75ZM656.716 107.75C655.316 107.75 654.166 107.35 653.266 106.55C652.466 105.75 652.066 104.6 652.066 103.1V37.4C652.066 35.9 652.466 34.75 653.266 33.95C654.166 33.15 655.316 32.75 656.716 32.75C658.116 32.75 659.216 33.15 660.016 33.95C660.816 34.75 661.216 35.9 661.216 37.4V103.1C661.216 104.6 660.816 105.75 660.016 106.55C659.216 107.35 658.116 107.75 656.716 107.75ZM656.716 15.8C654.716 15.8 653.066 15.2 651.766 14C650.566 12.8 649.966 11.25 649.966 9.35C649.966 7.35 650.566 5.75 651.766 4.55C653.066 3.34999 654.716 2.74999 656.716 2.74999C658.716 2.74999 660.316 3.34999 661.516 4.55C662.816 5.75 663.466 7.35 663.466 9.35C663.466 11.25 662.816 12.8 661.516 14C660.316 15.2 658.716 15.8 656.716 15.8ZM719.368 32.45C736.868 32.45 745.618 41.85 745.618 60.65V103.1C745.618 104.5 745.218 105.65 744.418 106.55C743.618 107.35 742.518 107.75 741.118 107.75C739.718 107.75 738.568 107.35 737.668 106.55C736.868 105.65 736.468 104.5 736.468 103.1V61.25C736.468 54.05 735.018 48.8 732.118 45.5C729.218 42.2 724.618 40.55 718.318 40.55C711.118 40.55 705.318 42.75 700.918 47.15C696.618 51.55 694.468 57.45 694.468 64.85V103.1C694.468 104.5 694.068 105.65 693.268 106.55C692.468 107.35 691.368 107.75 689.968 107.75C688.568 107.75 687.418 107.35 686.518 106.55C685.718 105.65 685.318 104.5 685.318 103.1V37.4C685.318 36 685.718 34.9 686.518 34.1C687.418 33.2 688.568 32.75 689.968 32.75C691.268 32.75 692.318 33.15 693.118 33.95C693.918 34.75 694.318 35.85 694.318 37.25V46.7C696.618 42.1 699.918 38.6 704.218 36.2C708.618 33.7 713.668 32.45 719.368 32.45Z" fill="#F6F7EB"/>
<path d="M346.42 31.85C355.22 31.85 361.77 34.35 366.07 39.35C370.37 44.35 372.52 51.9 372.52 62V98.9C372.52 101.7 371.67 103.9 369.97 105.5C368.37 107.1 366.12 107.9 363.22 107.9C360.32 107.9 358.02 107.1 356.32 105.5C354.62 103.9 353.77 101.7 353.77 98.9V63.05C353.77 57.35 352.67 53.2 350.47 50.6C348.37 48 345.02 46.7 340.42 46.7C335.02 46.7 330.67 48.4 327.37 51.8C324.17 55.2 322.57 59.75 322.57 65.45V98.9C322.57 101.7 321.72 103.9 320.02 105.5C318.32 107.1 316.02 107.9 313.12 107.9C310.22 107.9 307.92 107.1 306.22 105.5C304.62 103.9 303.82 101.7 303.82 98.9V40.85C303.82 38.25 304.67 36.15 306.37 34.55C308.07 32.95 310.37 32.15 313.27 32.15C315.87 32.15 317.97 32.95 319.57 34.55C321.27 36.05 322.12 38.05 322.12 40.55V44.6C324.62 40.5 327.97 37.35 332.17 35.15C336.37 32.95 341.12 31.85 346.42 31.85ZM449.614 86.9C451.314 86.9 452.664 87.55 453.664 88.85C454.764 90.15 455.314 91.9 455.314 94.1C455.314 97.2 453.464 99.8 449.764 101.9C446.364 103.8 442.514 105.35 438.214 106.55C433.914 107.65 429.814 108.2 425.914 108.2C414.114 108.2 404.764 104.8 397.864 98C390.964 91.2 387.514 81.9 387.514 70.1C387.514 62.6 389.014 55.95 392.014 50.15C395.014 44.35 399.214 39.85 404.614 36.65C410.114 33.45 416.314 31.85 423.214 31.85C429.814 31.85 435.564 33.3 440.464 36.2C445.364 39.1 449.164 43.2 451.864 48.5C454.564 53.8 455.914 60.05 455.914 67.25C455.914 71.55 454.014 73.7 450.214 73.7H405.964C406.564 80.6 408.514 85.7 411.814 89C415.114 92.2 419.914 93.8 426.214 93.8C429.414 93.8 432.214 93.4 434.614 92.6C437.114 91.8 439.914 90.7 443.014 89.3C446.014 87.7 448.214 86.9 449.614 86.9ZM423.664 45.05C418.564 45.05 414.464 46.65 411.364 49.85C408.364 53.05 406.564 57.65 405.964 63.65H439.864C439.664 57.55 438.164 52.95 435.364 49.85C432.564 46.65 428.664 45.05 423.664 45.05ZM497.802 108.2C486.902 108.2 478.102 106.05 471.402 101.75C468.202 99.85 466.602 97.15 466.602 93.65C466.602 91.65 467.152 90.05 468.252 88.85C469.352 87.55 470.702 86.9 472.302 86.9C474.002 86.9 476.352 87.7 479.352 89.3C482.552 90.8 485.452 91.95 488.052 92.75C490.752 93.55 494.152 93.95 498.252 93.95C502.452 93.95 505.702 93.25 508.002 91.85C510.402 90.45 511.602 88.5 511.602 86C511.602 84.3 511.102 82.95 510.102 81.95C509.202 80.95 507.502 80.05 505.002 79.25C502.602 78.35 498.902 77.35 493.902 76.25C485.002 74.45 478.602 71.9 474.702 68.6C470.902 65.3 469.002 60.75 469.002 54.95C469.002 50.55 470.302 46.6 472.902 43.1C475.502 39.5 479.052 36.75 483.552 34.85C488.152 32.85 493.352 31.85 499.152 31.85C503.352 31.85 507.402 32.4 511.302 33.5C515.202 34.5 518.702 36 521.802 38C525.002 40 526.602 42.65 526.602 45.95C526.602 47.95 526.052 49.65 524.952 51.05C523.852 52.35 522.502 53 520.902 53C519.802 53 518.702 52.8 517.602 52.4C516.602 51.9 515.302 51.2 513.702 50.3C510.802 48.8 508.302 47.7 506.202 47C504.102 46.2 501.502 45.8 498.402 45.8C494.702 45.8 491.752 46.55 489.552 48.05C487.452 49.55 486.402 51.6 486.402 54.2C486.402 56.7 487.502 58.6 489.702 59.9C491.902 61.2 496.152 62.5 502.452 63.8C509.152 65.2 514.402 66.8 518.202 68.6C522.002 70.4 524.702 72.65 526.302 75.35C528.002 78.05 528.852 81.5 528.852 85.7C528.852 92.5 526.002 97.95 520.302 102.05C514.702 106.15 507.202 108.2 497.802 108.2ZM570.605 108.2C559.705 108.2 550.905 106.05 544.205 101.75C541.005 99.85 539.405 97.15 539.405 93.65C539.405 91.65 539.955 90.05 541.055 88.85C542.155 87.55 543.505 86.9 545.105 86.9C546.805 86.9 549.155 87.7 552.155 89.3C555.355 90.8 558.255 91.95 560.855 92.75C563.555 93.55 566.955 93.95 571.055 93.95C575.255 93.95 578.505 93.25 580.805 91.85C583.205 90.45 584.405 88.5 584.405 86C584.405 84.3 583.905 82.95 582.905 81.95C582.005 80.95 580.305 80.05 577.805 79.25C575.405 78.35 571.705 77.35 566.705 76.25C557.805 74.45 551.405 71.9 547.505 68.6C543.705 65.3 541.805 60.75 541.805 54.95C541.805 50.55 543.105 46.6 545.705 43.1C548.305 39.5 551.855 36.75 556.355 34.85C560.955 32.85 566.155 31.85 571.955 31.85C576.155 31.85 580.205 32.4 584.105 33.5C588.005 34.5 591.505 36 594.605 38C597.805 40 599.405 42.65 599.405 45.95C599.405 47.95 598.855 49.65 597.755 51.05C596.655 52.35 595.305 53 593.705 53C592.605 53 591.505 52.8 590.405 52.4C589.405 51.9 588.105 51.2 586.505 50.3C583.605 48.8 581.105 47.7 579.005 47C576.905 46.2 574.305 45.8 571.205 45.8C567.505 45.8 564.555 46.55 562.355 48.05C560.255 49.55 559.205 51.6 559.205 54.2C559.205 56.7 560.305 58.6 562.505 59.9C564.705 61.2 568.955 62.5 575.255 63.8C581.955 65.2 587.205 66.8 591.005 68.6C594.805 70.4 597.505 72.65 599.105 75.35C600.805 78.05 601.655 81.5 601.655 85.7C601.655 92.5 598.805 97.95 593.105 102.05C587.505 106.15 580.005 108.2 570.605 108.2Z" fill="#E94F37"/>
</svg>
