<svg width="37" height="40" viewBox="0 0 37 40" fill="none" xmlns="http://www.w3.org/2000/svg">
<path d="M28.3285 6.92C27.8902 6.92 27.4618 7.06076 27.0973 7.32447C26.7329 7.58819 26.4489 7.96302 26.2811 8.40156C26.1134 8.8401 26.0695 9.32266 26.155 9.78822C26.2405 10.2538 26.4516 10.6814 26.7615 11.0171C27.0714 11.3527 27.4663 11.5813 27.8962 11.6739C28.3261 11.7665 28.7716 11.719 29.1766 11.5373C29.5815 11.3557 29.9276 11.048 30.1711 10.6534C30.4146 10.2587 30.5446 9.79467 30.5446 9.32C30.5446 8.68348 30.3111 8.07303 29.8955 7.62294C29.4799 7.17286 28.9162 6.92 28.3285 6.92ZM36.8234 11.76C36.7875 10.1006 36.5005 8.45881 35.9739 6.9C35.5043 5.56626 34.7735 4.35856 33.8317 3.36C32.9173 2.33485 31.7995 1.54835 30.563 1.06C29.1275 0.472322 27.6099 0.15442 26.0755 0.12C24.118 -1.11759e-07 23.4901 0 18.4671 0C13.444 0 12.8162 -1.11759e-07 10.8586 0.12C9.32431 0.15442 7.80667 0.472322 6.37114 1.06C5.13695 1.5533 4.02016 2.33912 3.10247 3.36C2.1559 4.35036 1.42968 5.56088 0.978756 6.9C0.43612 8.45469 0.142584 10.0983 0.110802 11.76C-1.03193e-07 13.88 0 14.56 0 20C0 25.44 -1.03193e-07 26.12 0.110802 28.24C0.142584 29.9017 0.43612 31.5453 0.978756 33.1C1.42968 34.4391 2.1559 35.6496 3.10247 36.64C4.02016 37.6609 5.13695 38.4467 6.37114 38.94C7.80667 39.5277 9.32431 39.8456 10.8586 39.88C12.8162 40 13.444 40 18.4671 40C23.4901 40 24.118 40 26.0755 39.88C27.6099 39.8456 29.1275 39.5277 30.563 38.94C31.7995 38.4516 32.9173 37.6651 33.8317 36.64C34.7777 35.6452 35.5091 34.4364 35.9739 33.1C36.5005 31.5412 36.7875 29.8994 36.8234 28.24C36.8234 26.12 36.9342 25.44 36.9342 20C36.9342 14.56 36.9342 13.88 36.8234 11.76ZM33.4993 28C33.4858 29.2695 33.2735 30.5274 32.8714 31.72C32.5766 32.5904 32.103 33.3768 31.4864 34.02C30.8874 34.681 30.1627 35.1929 29.3627 35.52C28.2615 35.9555 27.1 36.1854 25.9278 36.2C24.0811 36.3 23.3978 36.32 18.541 36.32C13.6841 36.32 13.0008 36.32 11.1541 36.2C9.93694 36.2247 8.72495 36.0217 7.5715 35.6C6.80656 35.2562 6.11511 34.7456 5.54013 34.1C4.92718 33.4575 4.45951 32.6704 4.17356 31.8C3.7227 30.5903 3.47263 29.3039 3.43488 28C3.43488 26 3.32408 25.26 3.32408 20C3.32408 14.74 3.32408 14 3.43488 12C3.44316 10.7021 3.66193 9.41589 4.08123 8.2C4.40633 7.35582 4.90535 6.60332 5.54013 6C6.10118 5.31234 6.79457 4.76619 7.5715 4.4C8.69717 3.96009 9.88358 3.73016 11.0803 3.72C12.927 3.72 13.6102 3.6 18.4671 3.6C23.3239 3.6 24.0072 3.6 25.8539 3.72C27.0262 3.73456 28.1876 3.96449 29.2888 4.4C30.128 4.7373 30.8812 5.28569 31.4864 6C32.0916 6.61436 32.5644 7.36546 32.8714 8.2C33.2819 9.41787 33.4943 10.7036 33.4993 12C33.5916 14 33.6101 14.74 33.6101 20C33.6101 25.26 33.5916 26 33.4993 28ZM18.4671 9.74C16.5942 9.74395 14.7644 10.3491 13.2089 11.4788C11.6534 12.6086 10.442 14.2124 9.72779 16.0875C9.01358 17.9626 8.8286 20.0249 9.19623 22.0139C9.56385 24.0028 10.4676 25.8291 11.7932 27.262C13.1189 28.6948 14.8069 29.67 16.6441 30.0643C18.4813 30.4586 20.3852 30.2542 22.1152 29.4771C23.8452 28.6999 25.3237 27.3849 26.3639 25.6981C27.404 24.0113 27.9592 22.0284 27.9592 20C27.9616 18.6502 27.7176 17.3132 27.2412 16.0659C26.7649 14.8186 26.0655 13.6856 25.1833 12.7321C24.3012 11.7786 23.2537 11.0234 22.101 10.5099C20.9484 9.99636 19.7134 9.73472 18.4671 9.74ZM18.4671 26.66C17.2508 26.66 16.0619 26.2694 15.0506 25.5376C14.0393 24.8058 13.2511 23.7656 12.7857 22.5487C12.3202 21.3317 12.1984 19.9926 12.4357 18.7007C12.673 17.4088 13.2587 16.2221 14.1187 15.2907C14.9787 14.3593 16.0745 13.7249 17.2674 13.468C18.4603 13.211 19.6967 13.3429 20.8204 13.847C21.9441 14.351 22.9045 15.2047 23.5802 16.2999C24.256 17.3951 24.6166 18.6828 24.6166 20C24.6166 20.8746 24.4576 21.7406 24.1485 22.5487C23.8395 23.3567 23.3865 24.0909 22.8155 24.7093C22.2444 25.3278 21.5665 25.8183 20.8204 26.153C20.0743 26.4877 19.2747 26.66 18.4671 26.66Z" fill="white"/>
</svg>
