<svg width="40" height="40" viewBox="0 0 40 40" fill="none" xmlns="http://www.w3.org/2000/svg">
<path d="M2 14.114V29C2 30.5913 2.63214 32.1174 3.75736 33.2426C4.88258 34.3679 6.4087 35 8 35H32C33.5913 35 35.1174 34.3679 36.2426 33.2426C37.3679 32.1174 38 30.5913 38 29V11C38 9.4087 37.3679 7.88258 36.2426 6.75736C35.1174 5.63214 33.5913 5 32 5H8C6.4087 5 4.88258 5.63214 3.75736 6.75736C2.63214 7.88258 2 9.4087 2 11V14.114ZM8 8H32C32.7956 8 33.5587 8.31607 34.1213 8.87868C34.6839 9.44129 35 10.2044 35 11V13.22L20 21.296L5 13.22V11C5 10.2044 5.31607 9.44129 5.87868 8.87868C6.44129 8.31607 7.20435 8 8 8V8ZM5 16.628L19.289 24.32C19.5075 24.4376 19.7518 24.4992 20 24.4992C20.2482 24.4992 20.4925 24.4376 20.711 24.32L35 16.628V29C35 29.7956 34.6839 30.5587 34.1213 31.1213C33.5587 31.6839 32.7956 32 32 32H8C7.20435 32 6.44129 31.6839 5.87868 31.1213C5.31607 30.5587 5 29.7956 5 29V16.628Z" fill="white"/>
</svg>
