<svg width="44" height="40" viewBox="0 0 44 40" fill="none" xmlns="http://www.w3.org/2000/svg">
<path d="M43.4048 2.79497C43.4047 2.41782 43.3125 2.04741 43.1375 1.72136C42.9624 1.39531 42.7108 1.12525 42.4082 0.938596C42.1056 0.751946 41.7628 0.655361 41.4146 0.658655C41.0663 0.661949 40.7251 0.765003 40.4256 0.957348C39.2702 1.70268 38.0262 2.27349 36.7282 2.65394C34.8755 0.932294 32.5125 -0.00973143 30.0713 7.58105e-05C27.3934 0.00355133 24.8216 1.13391 22.8988 3.1525C20.976 5.17108 19.8528 7.91989 19.7663 10.8185C14.4862 9.90683 9.70061 6.9222 6.3223 2.43386C6.11874 2.1667 5.8589 1.95641 5.56465 1.82068C5.2704 1.68496 4.95035 1.62777 4.63144 1.65394C4.3126 1.68251 4.00498 1.79472 3.73514 1.98086C3.4653 2.167 3.24135 2.42148 3.08264 2.72232C2.26882 4.26058 1.80145 5.98501 1.71849 7.7556C1.63553 9.52618 1.93931 11.293 2.60517 12.9126L2.60122 12.9147C2.3013 13.1143 2.05378 13.394 1.88241 13.727C1.71104 14.0601 1.62158 14.4352 1.62262 14.8164C1.61945 15.1301 1.63726 15.4436 1.67589 15.7545C1.87738 18.4426 2.97735 20.9589 4.76955 22.8315C4.64793 23.0826 4.57378 23.3574 4.55142 23.6399C4.52906 23.9224 4.55895 24.2069 4.63933 24.4768C5.4206 27.1139 7.08241 29.3403 9.29955 30.7204C7.04672 31.6637 4.61427 31.9924 2.21649 31.6777C1.77291 31.6179 1.32373 31.7231 0.942543 31.9759C0.561351 32.2288 0.270733 32.6143 0.118286 33.0694C-0.0341612 33.5245 -0.0394006 34.0221 0.103426 34.4809C0.246252 34.9396 0.528677 35.3322 0.904447 35.5944C5.02842 38.4706 9.83005 39.9995 14.7352 39.9983C20.2975 40.0661 25.7246 38.1412 30.1724 34.523C34.6201 30.9048 37.8391 25.7962 39.3286 19.9917C40.025 17.4634 40.3805 14.8394 40.3841 12.201L40.3822 11.7737C41.4124 10.5703 42.2104 9.15619 42.7294 7.6144C43.2485 6.07261 43.4781 4.43412 43.4048 2.79497V2.79497ZM36.8821 9.65827C36.5558 10.0754 36.3905 10.6126 36.4204 11.1583C36.4401 11.5109 36.4381 11.8656 36.4381 12.201C36.4339 14.4301 36.1322 16.6467 35.5424 18.7823C34.3264 23.7217 31.6149 28.0762 27.8423 31.1485C24.0698 34.2207 19.4543 35.8329 14.7352 35.7269C13.0406 35.7271 11.3519 35.5113 9.70402 35.0837C11.8059 34.3496 13.7711 33.2181 15.5086 31.7418C15.829 31.469 16.0635 31.0954 16.1799 30.6724C16.2963 30.2494 16.289 29.7978 16.1588 29.3795C16.0286 28.9612 15.782 28.5969 15.4529 28.3365C15.1238 28.0762 14.7283 27.9326 14.3208 27.9255C12.6807 27.8977 11.1146 27.1814 9.95261 25.9276C10.2472 25.8678 10.5399 25.793 10.8306 25.7033C11.2568 25.5721 11.6298 25.2893 11.8896 24.9005C12.1493 24.5117 12.2807 24.0395 12.2624 23.56C12.2442 23.0806 12.0775 22.6217 11.7891 22.2573C11.5007 21.893 11.1075 21.6444 10.6728 21.5515C9.72077 21.3479 8.82498 20.9092 8.05504 20.2695C7.28511 19.6299 6.66178 18.8065 6.23351 17.8635C6.59014 17.9163 6.94905 17.9491 7.3088 17.9618C7.73631 17.9694 8.15495 17.8293 8.50403 17.5619C8.8531 17.2945 9.11447 16.9137 9.25023 16.4746C9.38054 16.0318 9.374 15.555 9.23158 15.1166C9.08917 14.6782 8.81864 14.302 8.46103 14.0451C7.59278 13.4191 6.88146 12.5697 6.39079 11.5729C5.90011 10.5761 5.64541 9.46307 5.64951 8.33348C5.64951 8.19245 5.65345 8.04929 5.66134 7.9104C10.0837 12.3776 15.8201 15.0109 21.8597 15.3464C22.1646 15.3589 22.4682 15.2962 22.7475 15.1629C23.0267 15.0296 23.2743 14.8293 23.4716 14.5771C23.667 14.3234 23.8054 14.024 23.8759 13.7026C23.9464 13.3811 23.9471 13.0463 23.878 12.7245C23.7651 12.2143 23.7075 11.6915 23.7064 11.1668C23.7085 9.33933 24.3797 7.58733 25.5729 6.29509C26.7661 5.00285 28.3838 4.27588 30.0713 4.27362C30.9397 4.27084 31.7992 4.46309 32.5955 4.83822C33.3919 5.21335 34.1077 5.76323 34.6979 6.45312C34.9255 6.71834 35.212 6.91608 35.53 7.02754C35.8481 7.139 36.1872 7.16046 36.5151 7.08988C37.3256 6.91925 38.1245 6.68938 38.9064 6.40184C38.3733 7.58309 37.6921 8.67893 36.8821 9.65827V9.65827Z" fill="white"/>
</svg>
